<svg width="79" height="14" viewBox="0 0 79 14" fill="none" xmlns="http://www.w3.org/2000/svg">
  <path d="M6.71776 0.938621C6.81412 0.64203 7.23372 0.642031 7.33009 0.938621L8.46944 4.4452C8.51254 4.57784 8.63615 4.66764 8.77561 4.66764H12.4626C12.7745 4.66764 12.9042 5.0667 12.6519 5.25L9.66899 7.41719C9.55616 7.49916 9.50895 7.64447 9.55205 7.77711L10.6914 11.2837C10.7878 11.5803 10.4483 11.8269 10.196 11.6436L7.21314 9.47642C7.10031 9.39444 6.94753 9.39444 6.8347 9.47642L3.85183 11.6436C3.59953 11.8269 3.26007 11.5803 3.35644 11.2837L4.4958 7.77711C4.53889 7.64447 4.49168 7.49916 4.37885 7.41719L1.39598 5.25C1.14369 5.0667 1.27335 4.66764 1.5852 4.66764H5.27223C5.4117 4.66764 5.5353 4.57784 5.5784 4.4452L6.71776 0.938621Z" fill="#EAB308"/>
  <path d="M38.9099 0.938621C39.0063 0.64203 39.4259 0.642031 39.5222 0.938621L40.6616 4.4452C40.7047 4.57784 40.8283 4.66764 40.9677 4.66764H44.6548C44.9666 4.66764 45.0963 5.0667 44.844 5.25L41.8611 7.41719C41.7483 7.49916 41.7011 7.64447 41.7442 7.77711L42.8835 11.2837C42.9799 11.5803 42.6404 11.8269 42.3882 11.6436L39.4053 9.47642C39.2925 9.39444 39.1397 9.39444 39.0268 9.47642L36.044 11.6436C35.7917 11.8269 35.4522 11.5803 35.5486 11.2837L36.6879 7.77711C36.731 7.64447 36.6838 7.49916 36.571 7.41719L33.5881 5.25C33.3358 5.0667 33.4655 4.66764 33.7773 4.66764H37.4644C37.6038 4.66764 37.7274 4.57784 37.7705 4.4452L38.9099 0.938621Z" fill="#EAB308"/>
  <path d="M22.8138 0.938621C22.9102 0.64203 23.3298 0.642031 23.4262 0.938621L24.5655 4.4452C24.6086 4.57784 24.7322 4.66764 24.8717 4.66764H28.5587C28.8706 4.66764 29.0002 5.0667 28.7479 5.25L25.7651 7.41719C25.6522 7.49916 25.605 7.64447 25.6481 7.77711L26.7875 11.2837C26.8838 11.5803 26.5444 11.8269 26.2921 11.6436L23.3092 9.47642C23.1964 9.39444 23.0436 9.39444 22.9308 9.47642L19.9479 11.6436C19.6956 11.8269 19.3561 11.5803 19.4525 11.2837L20.5919 7.77711C20.635 7.64447 20.5878 7.49916 20.4749 7.41719L17.492 5.25C17.2398 5.0667 17.3694 4.66764 17.6813 4.66764H21.3683C21.5078 4.66764 21.6314 4.57784 21.6745 4.4452L22.8138 0.938621Z" fill="#EAB308"/>
  <path d="M55.0061 0.938621C55.1025 0.64203 55.5221 0.642031 55.6185 0.938621L56.7578 4.4452C56.8009 4.57784 56.9245 4.66764 57.064 4.66764H60.751C61.0629 4.66764 61.1925 5.0667 60.9403 5.25L57.9574 7.41719C57.8446 7.49916 57.7973 7.64447 57.8404 7.77711L58.9798 11.2837C59.0762 11.5803 58.7367 11.8269 58.4844 11.6436L55.5015 9.47642C55.3887 9.39444 55.2359 9.39444 55.1231 9.47642L52.1402 11.6436C51.8879 11.8269 51.5485 11.5803 51.6448 11.2837L52.7842 7.77711C52.8273 7.64447 52.7801 7.49916 52.6672 7.41719L49.6844 5.25C49.4321 5.0667 49.5617 4.66764 49.8736 4.66764H53.5606C53.7001 4.66764 53.8237 4.57784 53.8668 4.4452L55.0061 0.938621Z" fill="#EAB308"/>
  <path d="M71.1022 0.938621C71.1986 0.64203 71.6182 0.642031 71.7145 0.938621L72.8539 4.4452C72.897 4.57784 73.0206 4.66764 73.1601 4.66764H76.8471C77.1589 4.66764 77.2886 5.0667 77.0363 5.25L74.0534 7.41719C73.9406 7.49916 73.8934 7.64447 73.9365 7.77711L75.0758 11.2837C75.1722 11.5803 74.8328 11.8269 74.5805 11.6436L71.5976 9.47642C71.4848 9.39444 71.332 9.39444 71.2191 9.47642L68.2363 11.6436C67.984 11.8269 67.6445 11.5803 67.7409 11.2837L68.8802 7.77711C68.9233 7.64447 68.8761 7.49916 68.7633 7.41719L65.7804 5.25C65.5281 5.0667 65.6578 4.66764 65.9696 4.66764H69.6567C69.7961 4.66764 69.9197 4.57784 69.9628 4.4452L71.1022 0.938621Z" fill="#EAB308"/>
</svg>